<svg width="294" height="90" viewBox="0 0 294 90" fill="none" xmlns="http://www.w3.org/2000/svg">
<path d="M105.344 71L86.2259 43.689L105.344 19.3306H116.416L97.1503 43.689L116.416 71H105.344ZM76.0396 71V19.3306H85.4877V71H76.0396ZM128.526 71.7381C126.558 71.7381 124.762 71.3076 123.138 70.4464C121.514 69.5606 120.222 68.2935 119.263 66.645C118.303 64.9965 117.823 63.0035 117.823 60.6661C117.823 58.5747 118.303 56.7909 119.263 55.3146C120.247 53.8138 121.526 52.5712 123.101 51.5871C124.7 50.5783 126.422 49.7909 128.268 49.225C130.138 48.6345 131.971 48.2039 133.767 47.9333C135.588 47.6626 137.187 47.5027 138.565 47.4535C138.466 45.3375 137.925 43.7997 136.941 42.8402C135.957 41.8806 134.284 41.4008 131.922 41.4008C130.273 41.4008 128.661 41.6345 127.087 42.102C125.537 42.5449 123.778 43.2461 121.809 44.2057L120.997 36.7506C123.212 35.668 125.426 34.856 127.64 34.3147C129.879 33.7734 132.143 33.5028 134.431 33.5028C137.187 33.5028 139.561 33.9948 141.554 34.979C143.547 35.9632 145.085 37.5502 146.168 39.74C147.25 41.9052 147.791 44.7716 147.791 48.3393V58.3041C147.791 60.1494 147.878 61.4904 148.05 62.3269C148.222 63.1389 148.542 63.6556 149.009 63.877C149.477 64.0984 150.154 64.2092 151.039 64.2092H152.22L151.408 71.7381H148.087C146.709 71.7381 145.479 71.5536 144.396 71.1845C143.338 70.8401 142.428 70.348 141.665 69.7083C140.902 69.0685 140.287 68.3181 139.82 67.457C138.614 68.8102 136.978 69.8682 134.911 70.6309C132.869 71.3691 130.741 71.7381 128.526 71.7381ZM132.364 64.7259C133.176 64.7259 134.185 64.5167 135.391 64.0984C136.596 63.6556 137.679 62.9789 138.639 62.0686V53.6538C136.916 53.7276 135.194 54.0106 133.472 54.5027C131.749 54.9948 130.31 55.7206 129.154 56.6802C127.997 57.6398 127.419 58.8454 127.419 60.297C127.419 61.7979 127.813 62.9174 128.6 63.6556C129.387 64.3691 130.642 64.7259 132.364 64.7259ZM157.317 71V34.0933H165.879L166.248 40.9579L164.108 38.153C165.51 36.972 167.183 35.9017 169.127 34.9421C171.071 33.9825 173.334 33.5028 175.918 33.5028C180.642 33.5028 184.148 35.0774 186.436 38.2268C188.725 41.3516 189.869 45.4113 189.869 50.406V71H180.716V51.1442C180.716 47.6995 180.138 45.153 178.981 43.5045C177.849 41.856 175.992 41.0317 173.408 41.0317C171.317 41.0317 169.607 41.5484 168.278 42.5818C166.95 43.5906 165.781 44.9438 164.772 46.6416L166.47 42.1389V71H157.317ZM208.526 71.7381C206.09 71.7381 203.888 71.5044 201.919 71.0369C199.975 70.5694 198.019 69.8928 196.051 69.007L196.863 61.1828C198.758 62.29 200.615 63.1881 202.436 63.877C204.281 64.5413 206.213 64.8735 208.23 64.8735C210.051 64.8735 211.441 64.5782 212.401 63.9877C213.36 63.3972 213.84 62.4622 213.84 61.1828C213.84 60.2232 213.582 59.4359 213.065 58.8208C212.573 58.2057 211.823 57.6521 210.814 57.16C209.805 56.6679 208.55 56.1389 207.049 55.573C204.786 54.7364 202.854 53.8261 201.255 52.8419C199.68 51.8577 198.475 50.6767 197.638 49.2988C196.826 47.8964 196.42 46.1741 196.42 44.1319C196.42 42.0159 196.974 40.146 198.081 38.5221C199.188 36.8982 200.763 35.631 202.805 34.7207C204.847 33.8103 207.271 33.3551 210.076 33.3551C212.413 33.3551 214.504 33.6135 216.35 34.1302C218.22 34.6469 219.942 35.3481 221.517 36.2339L220.705 44.0581C219.056 42.9017 217.395 41.9544 215.722 41.2163C214.049 40.4535 212.216 40.0722 210.223 40.0722C208.649 40.0722 207.431 40.392 206.569 41.0317C205.708 41.6715 205.278 42.5818 205.278 43.7628C205.278 45.1899 205.881 46.2602 207.086 46.9737C208.292 47.6872 210.223 48.5607 212.881 49.5941C214.603 50.2584 216.091 50.9473 217.346 51.6609C218.626 52.3744 219.684 53.1617 220.52 54.0229C221.357 54.8841 221.972 55.8682 222.366 56.9754C222.784 58.058 222.993 59.3129 222.993 60.7399C222.993 63.0774 222.427 65.0703 221.295 66.7188C220.188 68.3427 218.552 69.5852 216.387 70.4464C214.246 71.3076 211.626 71.7381 208.526 71.7381ZM237.228 71.7381C235.26 71.7381 233.464 71.3076 231.84 70.4464C230.216 69.5606 228.924 68.2935 227.964 66.645C227.005 64.9965 226.525 63.0035 226.525 60.6661C226.525 58.5747 227.005 56.7909 227.964 55.3146C228.949 53.8138 230.228 52.5712 231.803 51.5871C233.402 50.5783 235.124 49.7909 236.97 49.225C238.84 48.6345 240.673 48.2039 242.469 47.9333C244.29 47.6626 245.889 47.5027 247.267 47.4535C247.168 45.3375 246.627 43.7997 245.643 42.8402C244.659 41.8806 242.985 41.4008 240.623 41.4008C238.975 41.4008 237.363 41.6345 235.789 42.102C234.239 42.5449 232.479 43.2461 230.511 44.2057L229.699 36.7506C231.913 35.668 234.128 34.856 236.342 34.3147C238.581 33.7734 240.845 33.5028 243.133 33.5028C245.889 33.5028 248.263 33.9948 250.256 34.979C252.249 35.9632 253.787 37.5502 254.869 39.74C255.952 41.9052 256.493 44.7716 256.493 48.3393V58.3041C256.493 60.1494 256.579 61.4904 256.752 62.3269C256.924 63.1389 257.244 63.6556 257.711 63.877C258.179 64.0984 258.855 64.2092 259.741 64.2092H260.922L260.11 71.7381H256.789C255.411 71.7381 254.181 71.5536 253.098 71.1845C252.04 70.8401 251.13 70.348 250.367 69.7083C249.604 69.0685 248.989 68.3181 248.521 67.457C247.316 68.8102 245.68 69.8682 243.613 70.6309C241.571 71.3691 239.442 71.7381 237.228 71.7381ZM241.066 64.7259C241.878 64.7259 242.887 64.5167 244.093 64.0984C245.298 63.6556 246.381 62.9789 247.34 62.0686V53.6538C245.618 53.7276 243.896 54.0106 242.174 54.5027C240.451 54.9948 239.012 55.7206 237.855 56.6802C236.699 57.6398 236.121 58.8454 236.121 60.297C236.121 61.7979 236.514 62.9174 237.302 63.6556C238.089 64.3691 239.344 64.7259 241.066 64.7259ZM276.5 71.7381C274.064 71.7381 271.862 71.5044 269.894 71.0369C267.95 70.5694 265.994 69.8928 264.026 69.007L264.838 61.1828C266.732 62.29 268.59 63.1881 270.411 63.877C272.256 64.5413 274.187 64.8735 276.205 64.8735C278.026 64.8735 279.416 64.5782 280.375 63.9877C281.335 63.3972 281.815 62.4622 281.815 61.1828C281.815 60.2232 281.556 59.4359 281.04 58.8208C280.548 58.2057 279.797 57.6521 278.788 57.16C277.78 56.6679 276.525 56.1389 275.024 55.573C272.76 54.7364 270.829 53.8261 269.23 52.8419C267.655 51.8577 266.449 50.6767 265.613 49.2988C264.801 47.8964 264.395 46.1741 264.395 44.1319C264.395 42.0159 264.948 40.146 266.056 38.5221C267.163 36.8982 268.738 35.631 270.78 34.7207C272.822 33.8103 275.245 33.3551 278.05 33.3551C280.388 33.3551 282.479 33.6135 284.324 34.1302C286.194 34.6469 287.917 35.3481 289.491 36.2339L288.679 44.0581C287.031 42.9017 285.37 41.9544 283.697 41.2163C282.024 40.4535 280.191 40.0722 278.198 40.0722C276.623 40.0722 275.405 40.392 274.544 41.0317C273.683 41.6715 273.252 42.5818 273.252 43.7628C273.252 45.1899 273.855 46.2602 275.061 46.9737C276.267 47.6872 278.198 48.5607 280.855 49.5941C282.578 50.2584 284.066 50.9473 285.321 51.6609C286.6 52.3744 287.658 53.1617 288.495 54.0229C289.331 54.8841 289.947 55.8682 290.34 56.9754C290.759 58.058 290.968 59.3129 290.968 60.7399C290.968 63.0774 290.402 65.0703 289.27 66.7188C288.163 68.3427 286.527 69.5852 284.361 70.4464C282.221 71.3076 279.6 71.7381 276.5 71.7381Z" fill="#FAFF11"/>
<path d="M43.2811 58.997V15.5173L58.9655 31.0032V74.4828H15.4859L0 58.997H43.2811Z" fill="#FAFF11"/>
<rect y="15.5173" width="21.8391" height="21.8391" fill="#FAFF11"/>
</svg>
